<svg width="504.123" height="504.123" xmlns="http://www.w3.org/2000/svg">

 <g>
  <title>background</title>
  <rect fill="none" id="canvas_background" height="402" width="582" y="-1" x="-1"/>
 </g>
 <g>
  <title>Layer 1</title>
  <path id="svg_1" fill="#ff0000" d="m406.617,430.08c0,40.96 -68.923,74.043 -154.388,74.043c-85.071,0 -154.388,-33.083 -154.388,-74.043l-30.72,-331.618l370.215,0l-30.719,331.618z"/>
  <path id="svg_2" fill="#a80000" d="m67.121,98.462l4.726,50.806c29.538,35.052 99.249,59.471 180.382,59.471s150.843,-24.418 180.382,-59.471l4.726,-50.806c0,0 -370.216,0 -370.216,0zm185.108,163.052c-6.695,0 -12.603,5.514 -12.603,12.603l0,168.172c0,6.695 5.514,12.603 12.603,12.603c6.695,0 12.603,-5.514 12.603,-12.603l0,-168.566c0,-6.695 -5.908,-12.209 -12.603,-12.209zm62.228,-6.302c-6.695,0 -12.603,5.514 -12.603,12.603l-6.302,167.778c0,6.695 5.514,12.603 12.603,12.603c6.695,0 12.603,-5.514 12.603,-12.603l5.908,-167.778c0,-7.089 -5.514,-12.603 -12.209,-12.603zm55.926,-12.603c-6.695,0 -12.603,5.514 -12.603,12.603l-12.603,165.022c0,6.695 5.514,12.603 12.603,12.603c6.695,0 12.603,-5.514 12.603,-12.603l12.603,-165.022c0,-6.695 -5.908,-12.603 -12.603,-12.603zm-180.382,12.603c-6.695,0 -12.603,5.514 -12.603,12.603l6.302,168.172c0,6.695 5.514,12.603 12.603,12.603c7.089,0 12.603,-5.514 12.603,-12.603l-6.302,-168.172c0,-7.089 -5.907,-12.603 -12.603,-12.603zm-55.926,-12.603c-6.695,0 -12.603,5.514 -12.603,12.603l12.603,165.022c0,6.695 5.514,12.603 12.603,12.603s12.603,-5.514 12.603,-12.603l-12.603,-165.022c-0.394,-6.695 -5.907,-12.603 -12.603,-12.603z"/>
  <path id="svg_3" fill="#ff0000" d="m428.672,72.074c15.36,15.36 12.209,33.083 12.209,33.871c0,52.382 -84.677,94.917 -189.046,94.917s-188.652,-42.536 -188.652,-94.917c0,-0.394 -2.757,-18.905 11.815,-33.871c11.028,-12.209 343.04,-12.209 353.674,0z"/>
  <path id="svg_4" fill="#b70303" d="m252.229,0c102.4,0 185.108,40.566 185.108,90.585s-82.708,90.585 -185.108,90.585s-185.108,-40.567 -185.108,-90.585s82.708,-90.585 185.108,-90.585z"/>
  <path id="svg_5" fill="#CDCFCF" d="m145.891,137.058l-18.117,20.48c33.083,14.178 76.406,23.237 124.455,23.237s91.372,-8.665 124.455,-23.237l-18.117,-20.48c-30.326,11.422 -66.954,18.511 -106.338,18.511c-39.778,0 -76.406,-7.089 -106.338,-18.511z"/>
  <path id="svg_6" fill="#a80000" d="m252.229,31.508c83.102,0 154.388,24.812 185.108,59.865l0,-0.788c0,-50.019 -82.708,-90.585 -185.108,-90.585s-185.108,40.566 -185.108,90.585l0,0.788c30.72,-35.053 102.006,-59.865 185.108,-59.865z"/>
  <path id="svg_7" fill="#CCD0D2" d="m252.229,181.169c48.049,0 91.766,-9.058 124.455,-23.631l-55.926,-64.197l-76.8,87.828l8.271,0z"/>
  <path id="svg_8" fill="#DCDEDF" d="m158.887,168.172l1.182,1.182c27.175,7.483 58.683,11.815 92.16,11.815c26.782,0 52.382,-2.757 75.618,-7.877l5.12,-5.12l-87.04,-99.643c0,0 -87.04,99.643 -87.04,99.643z"/>
  <path id="svg_9" fill="#E4E7E7" d="m252.229,181.169l8.271,0l-76.8,-87.828l-55.926,64.197c32.689,14.967 76.406,23.631 124.455,23.631z"/>
  <path id="svg_10" fill="#B7BBBD" d="m244.352,180.382l7.483,0c47.655,0 91.372,-8.665 124.455,-23.237l-17.723,-20.086c-26.388,10.24 -57.895,16.935 -92.16,18.511l-22.055,24.812z"/>
  <path id="svg_11" fill="#C6C7C8" d="m316.426,149.268c-20.086,4.332 -41.748,6.695 -64.197,6.695c-26.388,0 -51.594,-3.151 -74.437,-9.058l-18.511,21.268l0.394,0.394c27.175,7.483 59.077,11.815 92.948,11.815c27.175,0 53.169,-2.757 76.406,-7.877l4.726,-4.726c0,-0.001 -17.329,-18.511 -17.329,-18.511z"/>
  <path id="svg_12" fill="#CDCFCF" d="m259.712,180.382l-22.055,-25.206c-34.265,-1.575 -65.772,-8.271 -92.16,-18.511l-17.723,20.874c33.083,14.178 76.406,23.237 124.455,23.237c2.363,-0.394 5.12,-0.394 7.483,-0.394z"/>
  <g id="svg_13"/>
  <g id="svg_14"/>
  <g id="svg_15"/>
  <g id="svg_16"/>
  <g id="svg_17"/>
  <g id="svg_18"/>
  <g id="svg_19"/>
  <g id="svg_20"/>
  <g id="svg_21"/>
  <g id="svg_22"/>
  <g id="svg_23"/>
  <g id="svg_24"/>
  <g id="svg_25"/>
  <g id="svg_26"/>
  <g id="svg_27"/>
 </g>
</svg>