<svg xmlns="http://www.w3.org/2000/svg" version="1.0" width="1200" height="480" preserveAspectRatio="xMidYMid meet" style=""><rect id="backgroundrect" width="100%" height="100%" x="0" y="0" fill="none" stroke="none"/>
<metadata>
Created by potrace 1.15, written by Peter Selinger 2001-2017
</metadata>

<g class="currentLayer" style=""><title>Layer 1</title><g transform="translate(0,480) scale(0.10000000149011612,-0.10000000149011612) " fill="#0d6fd7" stroke="none" id="svg_1" class="selected" fill-opacity="1">
<path d="M0 4635 l0 -165 1170 0 1170 0 0 165 0 165 -1170 0 -1170 0 0 -165z" id="svg_2" fill="#0d6fd7" fill-opacity="1" stroke="none"/>
<path d="M2660 4635 l0 -165 1673 0 1672 1 -40 35 c-146 130 -391 248 -589 283 -40 8 -492 11 -1388 11 l-1328 0 0 -165z" id="svg_3" fill="#0d6fd7" fill-opacity="1" stroke="none"/>
<path d="M6640 4635 l0 -165 1010 0 c620 0 1010 4 1010 9 0 8 -48 145 -102 294 l-10 27 -954 0 -954 0 0 -165z" id="svg_4" fill="#0d6fd7" fill-opacity="1" stroke="none"/>
<path d="M10095 4788 c-3 -7 -25 -69 -49 -138 -24 -69 -49 -137 -55 -152 l-11 -28 1005 0 1005 0 0 165 0 165 -945 0 c-747 0 -947 -3 -950 -12z" id="svg_5" fill="#0d6fd7" fill-opacity="1" stroke="none"/>
<path d="M0 4000 l0 -170 1170 0 1170 0 0 170 0 170 -1170 0 -1170 0 0 -170z" id="svg_6" fill="#0d6fd7" fill-opacity="1" stroke="none"/>
<path d="M2660 4000 l0 -170 1864 0 1864 0 -14 65 c-19 89 -51 182 -80 233 l-25 42 -1804 0 -1805 0 0 -170z" id="svg_7" fill="#0d6fd7" fill-opacity="1" stroke="none"/>
<path d="M6640 4000 l0 -170 1125 0 c619 0 1125 3 1125 8 0 4 -26 80 -57 170 l-58 162 -1067 0 -1068 0 0 -170z" id="svg_8" fill="#0d6fd7" fill-opacity="1" stroke="none"/>
<path d="M9820 4013 c-30 -87 -56 -163 -58 -170 -3 -11 216 -13 1112 -13 l1116 0 0 170 0 170 -1057 0 -1058 0 -55 -157z" id="svg_9" fill="#0d6fd7" fill-opacity="1" stroke="none"/>
<path d="M670 3360 l0 -170 510 0 510 0 0 170 0 170 -510 0 -510 0 0 -170z" id="svg_10" fill="#0d6fd7" fill-opacity="1" stroke="none"/>
<path d="M3330 3360 l0 -170 510 0 510 0 0 170 0 170 -510 0 -510 0 0 -170z" id="svg_11" fill="#0d6fd7" fill-opacity="1" stroke="none"/>
<path d="M5330 3360 l0 -170 512 2 512 3 23 85 c13 47 26 122 30 168 l6 82 -542 0 -541 0 0 -170z" id="svg_12" fill="#0d6fd7" fill-opacity="1" stroke="none"/>
<path d="M7310 3360 l0 -170 905 0 c498 0 905 3 905 8 0 4 -26 80 -57 169 l-58 163 -847 0 -848 0 0 -170z" id="svg_13" fill="#0d6fd7" fill-opacity="1" stroke="none"/>
<path d="M9645 3518 c-3 -7 -27 -76 -54 -153 -27 -77 -52 -148 -56 -157 -7 -17 40 -18 894 -18 l901 0 0 170 0 170 -840 0 c-664 0 -842 -3 -845 -12z" id="svg_14" fill="#0d6fd7" fill-opacity="1" stroke="none"/>
<path d="M670 2720 l0 -170 510 0 510 0 0 170 0 170 -510 0 -510 0 0 -170z" id="svg_15" fill="#0d6fd7" fill-opacity="1" stroke="none"/>
<path d="M3330 2720 l0 -170 1302 0 1302 0 106 108 c90 90 170 196 170 225 0 4 -648 7 -1440 7 l-1440 0 0 -170z" id="svg_16" fill="#0d6fd7" fill-opacity="1" stroke="none"/>
<path d="M7310 2720 l0 -170 515 0 515 0 1 68 1 67 25 -67 26 -68 933 0 932 0 25 73 25 72 1 -72 1 -73 510 0 510 0 0 170 0 170 -954 0 -953 0 -43 -122 c-23 -68 -45 -126 -49 -130 -3 -4 -26 51 -51 122 l-45 130 -962 0 -963 0 0 -170z" id="svg_17" fill="#0d6fd7" fill-opacity="1" stroke="none"/>
<path d="M670 2080 l0 -170 510 0 510 0 0 170 0 170 -510 0 -510 0 0 -170z" id="svg_18" fill="#0d6fd7" fill-opacity="1" stroke="none"/>
<path d="M3330 2080 l0 -170 1440 0 c792 0 1440 3 1440 8 0 29 -80 134 -170 225 l-107 107 -1301 0 -1302 0 0 -170z" id="svg_19" fill="#0d6fd7" fill-opacity="1" stroke="none"/>
<path d="M7310 2080 l0 -170 515 0 515 0 0 170 0 170 -515 0 -515 0 0 -170z" id="svg_20" fill="#0d6fd7" fill-opacity="1" stroke="none"/>
<path d="M8510 2239 c0 -6 26 -83 57 -170 l57 -159 702 0 c659 0 702 1 709 18 4 9 31 86 60 170 l54 152 -819 0 c-602 0 -820 -3 -820 -11z" id="svg_21" fill="#0d6fd7" fill-opacity="1" stroke="none"/>
<path d="M10310 2080 l0 -170 510 0 510 0 0 170 0 170 -510 0 -510 0 0 -170z" id="svg_22" fill="#0d6fd7" fill-opacity="1" stroke="none"/>
<path d="M670 1440 l0 -170 510 0 510 0 0 170 0 170 -510 0 -510 0 0 -170z" id="svg_23" fill="#0d6fd7" fill-opacity="1" stroke="none"/>
<path d="M3330 1440 l0 -170 510 0 510 0 0 170 0 170 -510 0 -510 0 0 -170z" id="svg_24" fill="#0d6fd7" fill-opacity="1" stroke="none"/>
<path d="M5330 1440 l0 -170 541 0 542 0 -6 83 c-4 45 -17 120 -30 167 l-23 85 -512 3 -512 2 0 -170z" id="svg_25" fill="#0d6fd7" fill-opacity="1" stroke="none"/>
<path d="M7310 1440 l0 -170 515 0 515 0 0 170 0 170 -515 0 -515 0 0 -170z" id="svg_26" fill="#0d6fd7" fill-opacity="1" stroke="none"/>
<path d="M8740 1603 c0 -5 26 -81 57 -170 l58 -163 474 3 474 2 54 150 c29 83 56 158 59 168 5 16 -27 17 -585 17 -325 0 -591 -3 -591 -7z" id="svg_27" fill="#0d6fd7" fill-opacity="1" stroke="none"/>
<path d="M10310 1440 l0 -170 510 0 510 0 0 170 0 170 -510 0 -510 0 0 -170z" id="svg_28" fill="#0d6fd7" fill-opacity="1" stroke="none"/>
<path d="M10 800 l0 -170 1175 0 1175 0 0 170 0 170 -1175 0 -1175 0 0 -170z" id="svg_29" fill="#0d6fd7" fill-opacity="1" stroke="none"/>
<path d="M2660 800 l0 -170 1805 0 1804 0 25 43 c29 50 61 143 80 232 l14 65 -1864 0 -1864 0 0 -170z" id="svg_30" fill="#0d6fd7" fill-opacity="1" stroke="none"/>
<path d="M6660 800 l0 -170 840 0 840 0 0 170 0 170 -840 0 -840 0 0 -170z" id="svg_31" fill="#0d6fd7" fill-opacity="1" stroke="none"/>
<path d="M8970 963 c0 -5 27 -80 59 -168 l58 -160 244 -3 244 -2 55 157 c30 87 56 163 58 170 3 10 -71 13 -357 13 -199 0 -361 -3 -361 -7z" id="svg_32" fill="#0d6fd7" fill-opacity="1" stroke="none"/>
<path d="M10310 800 l0 -170 845 0 845 0 0 170 0 170 -845 0 -845 0 0 -170z" id="svg_33" fill="#0d6fd7" fill-opacity="1" stroke="none"/>
<path d="M10 165 l0 -165 1175 0 1175 0 0 165 0 165 -1175 0 -1175 0 0 -165z" id="svg_34" fill="#0d6fd7" fill-opacity="1" stroke="none"/>
<path d="M2660 165 l0 -165 1329 0 c1423 0 1389 -1 1541 50 147 49 328 151 435 244 l40 35 -1672 1 -1673 0 0 -165z" id="svg_35" fill="#0d6fd7" fill-opacity="1" stroke="none"/>
<path d="M6660 165 l0 -165 840 0 840 0 0 165 0 165 -840 0 -840 0 0 -165z" id="svg_36" fill="#0d6fd7" fill-opacity="1" stroke="none"/>
<path d="M9202 318 c3 -7 29 -80 58 -162 49 -134 69 -170 87 -153 7 8 113 304 113 317 0 6 -54 10 -131 10 -101 0 -130 -3 -127 -12z" id="svg_37" fill="#0d6fd7" fill-opacity="1" stroke="none"/>
<path d="M10310 165 l0 -165 845 0 845 0 0 165 0 165 -845 0 -845 0 0 -165z" id="svg_38" fill="#0d6fd7" fill-opacity="1" stroke="none"/>
</g></g></svg>